<svg width="25" height="16" viewBox="0 0 25 16" fill="none" xmlns="http://www.w3.org/2000/svg">
<path fill-rule="evenodd" clip-rule="evenodd" d="M-3.44275e-07 8.1239C-3.54419e-07 7.89183 0.0921868 7.66927 0.256281 7.50518C0.420376 7.34108 0.642935 7.2489 0.875 7.2489L21.5128 7.24889L16.0055 1.74339C15.8412 1.57909 15.7489 1.35625 15.7489 1.12389C15.7489 0.891537 15.8412 0.668696 16.0055 0.504394C16.1698 0.340093 16.3926 0.24779 16.625 0.24779C16.8574 0.24779 17.0802 0.340093 17.2445 0.504394L24.2445 7.50439C24.326 7.58567 24.3906 7.68223 24.4347 7.78854C24.4789 7.89484 24.5016 8.0088 24.5016 8.12389C24.5016 8.23899 24.4789 8.35295 24.4347 8.45925C24.3906 8.56556 24.326 8.66211 24.2445 8.74339L17.2445 15.7434C17.0802 15.9077 16.8574 16 16.625 16C16.3926 16 16.1698 15.9077 16.0055 15.7434C15.8412 15.5791 15.7489 15.3563 15.7489 15.1239C15.7489 14.8915 15.8412 14.6687 16.0055 14.5044L21.5128 8.99889L0.875 8.9989C0.642935 8.9989 0.420376 8.90671 0.256281 8.74261C0.0921869 8.57852 -3.34132e-07 8.35596 -3.44275e-07 8.1239Z" fill="#28A0F0"/>
</svg>
