<svg width="56" height="56" viewBox="0 0 56 56" fill="none" xmlns="http://www.w3.org/2000/svg">
<g clip-path="url(#clip0_2710_1210)">
<path d="M30.9646 24.2985C30.9604 24.2872 30.9555 24.2764 30.95 24.2657L18.6126 0.486324C18.5613 0.387734 18.4596 0.325684 18.3484 0.325684C18.2371 0.325684 18.1354 0.387734 18.0842 0.486324L5.74674 24.2657C5.74111 24.2764 5.73625 24.2873 5.73214 24.2985C4.43188 27.78 4.56496 31.5591 6.10715 34.9398C7.64923 38.3207 10.4158 40.8984 13.8971 42.1985C15.323 42.731 16.8174 43.0246 18.3393 43.0709C18.3423 43.071 18.3453 43.071 18.3484 43.071C18.3514 43.071 18.3544 43.071 18.3574 43.0709C19.8792 43.0244 21.3737 42.7309 22.7994 42.1985C26.2806 40.8984 29.0473 38.3206 30.5895 34.9398C32.1316 31.5591 32.2649 27.78 30.9646 24.2985Z" fill="#68CCEA"/>
<path d="M19.2997 40.6852C16.3423 37.7709 14.6969 33.8791 14.6663 29.7267C14.6662 29.7134 14.6669 29.6999 14.6686 29.6866L17.9844 0.678772L5.74674 24.2657C5.74111 24.2764 5.73625 24.2873 5.73214 24.2985C4.43188 27.78 4.56496 31.5592 6.10715 34.9398C7.64923 38.3208 10.4158 40.8985 13.8971 42.1985C15.323 42.731 16.8174 43.0246 18.3393 43.0709C18.3423 43.071 18.3453 43.071 18.3484 43.071C18.3514 43.071 18.3544 43.071 18.3574 43.0709C19.4669 43.0371 20.5616 42.8703 21.6259 42.5769C20.8006 42.0279 20.0216 41.3963 19.2997 40.6852Z" fill="#5ABCE2"/>
<path d="M50.0607 30.6787C50.0564 30.6675 50.0516 30.6566 50.0461 30.6459L43.9628 18.921C43.9116 18.8224 43.8098 18.7603 43.6986 18.7603C43.5874 18.7603 43.4856 18.8223 43.4344 18.921L37.3511 30.6459C37.3455 30.6566 37.3407 30.6675 37.3365 30.6787C36.6813 32.433 36.7485 34.3374 37.5256 36.0408C38.3025 37.7444 39.6966 39.0434 41.4511 39.6986C42.1696 39.9668 42.9227 40.1147 43.6895 40.1382C43.6925 40.1383 43.6956 40.1383 43.6986 40.1383C43.7016 40.1383 43.7047 40.1383 43.7077 40.1382C44.4742 40.1147 45.2274 39.9668 45.9459 39.6986C49.5668 38.3464 51.4128 34.3 50.0607 30.6787Z" fill="#5ABCE2"/>
<path d="M50.0605 30.6787C50.0562 30.6675 50.0514 30.6566 50.0459 30.6459L43.9626 18.921C43.9114 18.8224 43.8096 18.7603 43.6984 18.7603C43.6979 18.7603 43.6972 18.7605 43.6966 18.7605L41.3019 32.6864C41.2996 32.6995 41.2982 32.7127 41.2977 32.7259C41.1963 34.7872 41.9035 36.7642 43.2891 38.293C43.8828 38.9481 44.5712 39.4863 45.3258 39.8969C45.5348 39.8402 45.7418 39.7749 45.9457 39.6987C49.5666 38.3463 51.4126 34.3 50.0605 30.6787Z" fill="#68CCEA"/>
<path d="M37.9342 49.2038L33.8809 41.3911C33.8296 41.2925 33.7279 41.2305 33.6167 41.2305C33.5054 41.2305 33.4037 41.2925 33.3525 41.3911L29.2986 49.2038C29.293 49.2145 29.2881 49.2256 29.284 49.2368C28.364 51.7011 29.62 54.4547 32.0843 55.3752C32.5733 55.5574 33.0858 55.6582 33.6075 55.6743C33.6106 55.6744 33.6137 55.6744 33.6167 55.6744C33.6197 55.6744 33.6227 55.6744 33.6259 55.6743C34.1471 55.6582 34.6595 55.5576 35.1489 55.3751C37.6131 54.4548 38.8692 51.7011 37.9489 49.2367C37.9447 49.2253 37.9397 49.2144 37.9342 49.2038Z" fill="#5ABCE2"/>
<path d="M37.949 49.2367C37.9448 49.2253 37.9399 49.2144 37.9344 49.2038L33.8811 41.3911C33.8299 41.2925 33.7281 41.2305 33.6169 41.2305C33.5852 41.2305 33.5549 41.2366 33.5257 41.2461L31.8615 51.0366C31.8592 51.0498 31.8579 51.0635 31.8571 51.077C31.77 52.9292 32.6333 54.61 34.016 55.6463C34.4026 55.6027 34.7825 55.5119 35.1492 55.3752C37.6133 54.4547 38.8694 51.701 37.949 49.2367Z" fill="#68CCEA"/>
</g>
<defs>
<clipPath id="clip0_2710_1210">
<rect width="55.3486" height="55.3486" fill="white" transform="translate(0 0.325684)"/>
</clipPath>
</defs>
</svg>
