<svg width="40" height="51" viewBox="0 0 40 51" fill="none" xmlns="http://www.w3.org/2000/svg">
<path d="M38.8135 30.8721V30.8722C39.2615 41.4058 30.2578 50.0065 19.6575 50.0065C9.07733 50.0065 0.50349 41.4297 0.50349 30.8509H0.503592L0.503388 30.8408L0.503388 30.8408L0.503384 30.8406L0.503364 30.8396L0.503279 30.835L0.502955 30.8159L0.501914 30.7386C0.501132 30.6703 0.500286 30.569 0.500059 30.4381C0.499605 30.1764 0.501629 29.7967 0.511584 29.3276C0.531504 28.3888 0.583131 27.094 0.709777 25.6694C0.91877 23.3186 1.32722 20.6827 2.0984 18.7008C2.21035 19.0491 2.35412 19.4428 2.5365 19.8565C3.13856 21.2222 4.18871 22.8678 5.96478 23.775C7.56318 24.5914 8.57013 25.3158 9.17036 25.8256C9.4705 26.0806 9.6692 26.2821 9.78953 26.4149C9.8497 26.4814 9.89034 26.5307 9.91429 26.5611C9.92627 26.5762 9.93409 26.5867 9.9381 26.5921L9.94088 26.5959L9.94016 26.5949L9.93967 26.5942L9.9394 26.5938C9.93937 26.5937 9.93934 26.5937 9.94393 26.5905L10.7917 26.0846C10.7964 26.0823 10.7964 26.0823 10.7964 26.0823L10.7962 26.0819L10.7961 26.0818L10.7936 26.0768L10.7816 26.0526C10.7707 26.0303 10.7539 25.9955 10.7323 25.9486C10.689 25.855 10.626 25.7134 10.5505 25.5274C10.3994 25.1553 10.1984 24.6061 10.0036 23.9081C9.61395 22.5114 9.25104 20.5243 9.36076 18.17C9.56909 13.7002 11.4831 7.84648 18.295 2.15864C18.2168 2.75713 18.1516 3.51353 18.163 4.32967C18.1894 6.21047 18.6265 8.57194 20.4529 9.93194C23.5441 12.2337 24.6751 16.2042 24.3459 19.0408L24.2149 20.1698L25.1357 19.5035L24.8425 19.0984C25.1357 19.5035 25.1359 19.5033 25.1362 19.5031L25.1368 19.5027L25.1382 19.5016L25.142 19.4989L25.1529 19.4907C25.1565 19.488 25.1607 19.4848 25.1653 19.4813C25.1719 19.4762 25.1796 19.4703 25.1882 19.4635C25.2173 19.4405 25.2576 19.4078 25.3071 19.3652C25.4062 19.28 25.5424 19.1548 25.7011 18.9878C26.0183 18.6541 26.4264 18.1523 26.8053 17.4686C27.4343 16.3333 27.9738 14.7117 27.898 12.5545C28.2365 13.0057 28.6383 13.6498 29.0404 14.5457C30.1034 16.9142 31.1711 21.0492 31.0674 28.0351L31.0594 28.5784L31.6015 28.5414L31.5674 28.0425C31.6015 28.5414 31.6019 28.5413 31.6024 28.5413L31.6034 28.5412L31.6058 28.5411L31.6119 28.5406L31.6297 28.539C31.6439 28.5376 31.6629 28.5356 31.6863 28.5326C31.733 28.5268 31.7974 28.5172 31.8764 28.5019C32.0342 28.4714 32.2519 28.4177 32.5047 28.3241C33.0104 28.1368 33.6619 27.7873 34.2508 27.14C35.2854 26.0027 36.0425 24.0462 35.6511 20.7125C35.9228 21.067 36.2258 21.5092 36.5338 22.0473C37.553 23.8278 38.6353 26.6704 38.8135 30.8721Z" fill="#E14B4B" stroke="#28A0F0"/>
<path d="M24.4703 38.6351C24.4787 37.4331 24.8139 36.2754 25.3343 35.2263C25.6979 34.4909 26.1154 33.3498 26.2085 31.8571C26.1494 31.9604 26.087 32.0627 26.0211 32.1624C25.6592 32.7111 25.1423 33.2653 24.4369 33.4472C23.6924 33.6392 22.9017 33.3799 22.0984 32.6501L22.0983 32.6501C21.1839 31.8191 20.5012 30.9935 20.1733 29.5285C19.9179 28.3874 19.8817 26.8752 20.0661 24.6857C20.0561 24.702 20.0461 24.7185 20.036 24.7351C19.4695 25.6708 18.8247 27.1264 18.5509 29.1763L18.5509 29.1764C18.4197 30.157 17.7246 31.0547 16.6989 31.2829L16.6987 31.2829C16.1904 31.3958 15.605 31.3437 15.0453 30.9395C14.7387 30.718 14.4557 30.4023 14.1989 29.9797C14.1665 30.1609 14.1396 30.3669 14.123 30.5985C14.0353 31.8225 14.2345 33.7838 15.4669 36.6173L15.4834 36.6553L15.4935 36.6954L15.0084 36.8168C15.4935 36.6954 15.4935 36.6956 15.4936 36.6958L15.4937 36.6963L15.494 36.6975L15.4948 36.7007L15.497 36.7101L15.504 36.7407C15.5096 36.7662 15.517 36.8017 15.5253 36.8462C15.5419 36.9351 15.5621 37.0605 15.5783 37.2136C15.6107 37.5179 15.6285 37.9403 15.5668 38.4064C15.4427 39.3442 14.986 40.4978 13.658 41.1617C12.3504 41.8155 11.1611 41.5737 10.3264 41.1832C10.217 41.132 10.1132 41.0781 10.0156 41.0232C10.0454 41.1738 10.0799 41.336 10.1199 41.5082C10.3529 42.5107 10.7678 43.8366 11.4941 45.1454C12.2198 46.4532 13.2495 47.7322 14.7087 48.6624C16.1632 49.5895 18.0719 50.1881 20.59 50.0972L20.6009 50.0968L20.6009 50.0969M24.4703 38.6351C24.4703 38.635 24.4703 38.6349 24.4703 38.6348L24.9703 38.6386L24.4703 38.6351ZM24.4703 38.6351C24.4579 40.2414 24.7693 41.3243 25.365 41.9747C25.9866 42.6533 26.8116 42.753 27.5383 42.6385C28.2311 42.5294 28.9011 42.2196 29.3918 41.9452M29.3918 41.9452C28.8745 45.8386 26.8212 47.8471 24.8485 48.9052C23.7677 49.4848 22.6996 49.784 21.8995 49.9376C21.5003 50.0143 21.1704 50.0542 20.9425 50.0749C20.8286 50.0853 20.7405 50.0908 20.6821 50.0937C20.6529 50.0952 20.6312 50.096 20.6175 50.0965L20.603 50.0969L20.6009 50.0969M29.3918 41.9452C29.4093 41.9354 29.4265 41.9257 29.4435 41.916C29.6341 41.8076 29.8006 41.7031 29.9343 41.6148L29.4596 41.325C29.4413 41.5369 29.4186 41.7435 29.3918 41.9452ZM20.6009 50.0969L20.6005 50.0969C20.6007 50.0969 20.6009 50.0969 20.608 50.5955L20.6009 50.0969Z" fill="#FFD83B" stroke="#28A0F0"/>
</svg>
