<svg width="40" height="39" viewBox="0 0 40 39" fill="none" xmlns="http://www.w3.org/2000/svg">
<path d="M37.5844 0H2.22278C1.17222 0.424667 0.354444 1.28375 0 2.34867V36.3615C0.509444 37.8923 1.97889 39 3.715 39H36.0922C38.2506 39 40 37.29 40 35.1802V3.53004C40 1.937 39.0022 0.573083 37.5844 0ZM29.9261 14.2919H29.1483C28.8594 14.2919 28.5267 14.6613 28.5267 14.9218V24.3669C28.5267 24.628 28.86 25.0185 29.1483 25.0185H29.9261V27.2112H22.9511V25.0185H24.3506V15.0952H24.2839L20.8406 27.2112H18.175L14.7761 15.0952H14.7094V25.0185H16.1756V27.2112H10.2672V25.0185H11.0222C11.3333 25.0185 11.6667 24.628 11.6667 24.3669V14.9218C11.6667 14.6613 11.3333 14.2919 11.0222 14.2919H10.2672V12.012H17.6422L20.0633 20.8276H20.13L22.5733 12.012H29.9261V14.2919Z" fill="white"/>
</svg>
