<svg width="26" height="26" viewBox="0 0 26 26" fill="none" xmlns="http://www.w3.org/2000/svg">
<g clip-path="url(#clip0_2743_44)">
<path d="M23.2843 15.6594C23.5258 21.3362 18.6785 25.9477 12.9959 25.9477C7.31334 25.9477 2.70837 21.3411 2.70837 15.6594C2.70837 15.6594 2.60885 10.7419 3.87899 8.52879C3.87899 8.52879 4.242 10.8513 5.94776 11.7225C7.65352 12.5937 8.12503 13.283 8.12503 13.283C8.12503 13.283 4.53241 6.31481 12.6615 0C12.6615 0 11.8628 3.2296 13.5686 4.49974C15.2744 5.76988 15.8911 7.94715 15.71 9.5077C15.71 9.5077 17.4157 8.27345 16.9801 5.37097C16.9801 5.37097 19.3393 6.82221 19.23 14.1894C19.23 14.1894 21.8788 14.0083 20.9716 9.54441C20.9716 9.54441 23.0942 11.1776 23.2843 15.6594Z" fill="#E14B4B"/>
<path d="M7.59668 20.3941C7.59668 20.3941 8.02496 26.1925 13.4938 25.9951C13.4938 25.9951 18.1061 25.929 18.4031 20.9545C18.4031 20.9545 15.7519 23.0045 15.7771 19.7358C15.7812 19.1541 15.9436 18.5872 16.2022 18.0659C16.4983 17.4672 16.8515 16.3993 16.6247 14.9579C16.6247 14.9579 15.9737 17.7918 14.4499 16.4075C13.5387 15.5795 13.1822 14.8567 13.5607 11.5643C13.5607 11.5643 12.4545 12.5253 12.1576 14.7482C12.1013 15.1692 11.8052 15.5379 11.3908 15.6301C10.9829 15.7206 10.4804 15.5501 10.1019 14.5068C10.1019 14.5068 9.24534 15.7532 10.5628 18.7822C10.5628 18.7822 10.925 20.2293 9.73887 20.8224C8.55275 21.4154 7.59668 20.3941 7.59668 20.3941Z" fill="#FFD83B"/>
</g>
<defs>
<clipPath id="clip0_2743_44">
<rect width="26" height="26" fill="white"/>
</clipPath>
</defs>
</svg>
