<svg width="31" height="33" viewBox="0 0 31 33" fill="none" xmlns="http://www.w3.org/2000/svg">
<path d="M30.5177 4.64113C29.4124 5.27649 28.2251 5.70578 26.9769 5.89982C28.2648 4.90007 29.2284 3.32658 29.6878 1.47295C28.4777 2.40535 27.1534 3.06167 25.7724 3.41335C24.8436 2.12696 23.6135 1.27431 22.273 0.987799C20.9325 0.701285 19.5565 0.99693 18.3588 1.82883C17.1611 2.66074 16.2086 3.98236 15.6492 5.5885C15.0897 7.19465 14.9547 8.99545 15.2651 10.7113C12.8132 10.5516 10.4147 9.72491 8.22507 8.28481C6.03545 6.84471 4.10372 4.82343 2.55524 2.35214C2.02577 3.53699 1.72133 4.91073 1.72133 6.37376C1.72074 7.69082 1.97075 8.98771 2.44919 10.1494C2.92762 11.311 3.61968 12.3015 4.46397 13.033C3.48482 12.9925 2.52728 12.6493 1.67103 12.0318V12.1349C1.67093 13.9821 2.16348 15.7725 3.06509 17.2023C3.96671 18.632 5.22186 19.6131 6.61757 19.9789C5.70925 20.2978 4.75695 20.3448 3.83258 20.1163C4.22637 21.7057 4.99343 23.0956 6.02638 24.0914C7.05933 25.0872 8.30646 25.639 9.59318 25.6696C7.40891 27.8941 4.71134 29.1007 1.93444 29.0954C1.44254 29.0956 0.951058 29.0583 0.462524 28.9838C3.28124 31.3349 6.56243 32.5827 9.9135 32.5778C21.2573 32.5778 27.4587 20.3893 27.4587 9.81841C27.4587 9.47498 27.4521 9.12811 27.4402 8.78467C28.6464 7.65301 29.6876 6.25166 30.515 4.64628L30.5177 4.64113Z" fill="url(#paint0_linear_2743_3)"/>
<defs>
<linearGradient id="paint0_linear_2743_3" x1="30.5177" y1="0.881347" x2="-25.3935" y2="17.4953" gradientUnits="userSpaceOnUse">
<stop offset="0.9999" stop-color="white"/>
<stop offset="1" stop-color="#F7BD01"/>
</linearGradient>
</defs>
</svg>
